<?xml version="1.0" encoding="UTF-8"?>
<svg id="Layer_1" data-name="Layer 1" xmlns="http://www.w3.org/2000/svg" viewBox="0 0 527.38 678.12">
  <defs>
    <style>
      .cls-1 {
        fill: none;
        stroke: #418cec;
        stroke-miterlimit: 10;
        stroke-width: 1.5px;
      }
    </style>
  </defs>
  <path class="cls-1" d="M263.65,677.37c-82.19,0-164.38,0-246.57,0-14.46,0-16.28-1.85-16.3-16.51-.02-9.78-.07-19.56.02-29.33.08-8.93,3.75-12.69,12.37-12.95q16.71-.51,16.71-17.44c0-153.58,0-307.17-.03-460.75,0-5.4.15-10.58,5.25-13.96,1.45-.96,1.61-2.13.84-3.65-12.1-24.01-.97-42.17,14.98-58.92,7.54-7.92,15.65-15.3,23.38-23.06,6.37-6.4,12.57-12.85,16.8-21.13,4.09-8.01,14.44-8.58,18.39-.82,6.37,12.49,16.72,21.22,26.31,30.72,9.63,9.54,19.78,18.56,27.1,30.22,8.2,13.06,9.88,26.62,3.57,40.84-1.32,2.97-1.9,5.03,1.22,7.23,3.83,2.71,3.32,7.08,3.32,11.13,0,60.1.13,120.2-.14,180.29-.03,7.1,1.54,10.03,8.97,9.08,6.55-.84,14.57,2.37,19.45-1.23,4.71-3.47,2.94-11.93,4.43-18.12,11.5-48,53.21-85.64,103.15-92.43,4.77-.65,6.38-1.88,6.3-6.82-.28-18.12-.23-36.25-.03-54.37.04-3.99-1.21-5.55-5.01-7.04-30.23-11.84-48.94-33.62-52.04-66.39-3.26-34.47,11.29-60.5,41.23-77.76,1.23-.71,2.49-1.4,3.8-1.97,7.05-3.07,13.4-1.3,15.86,4.38,2.58,5.94-.11,11.73-6.97,14.98-29.32,13.9-41.35,46.48-28.23,76.5,11.86,27.16,45.79,40.41,74.1,28.8,6.18-2.54,11.64-6.37,16.6-10.91,5.63-5.16,11.98-5.28,16.32-.51,4.17,4.57,3.72,10.64-1.6,15.79-12.57,12.16-27.55,19.41-45.02,20.71-5.78.43-8.18,1.95-7.96,8.45.54,16.44.28,32.91.1,49.36-.05,4.29.99,6.1,5.72,6.83,56.59,8.8,97.19,49.95,105.36,106.7.6,4.14,2.18,5.05,5.88,4.98,9.5-.18,19-.06,28.5-.06,14.4,0,17.18,2.76,17.18,16.94,0,88,0,176,0,264q0,9.38,8.98,9.38c19.29.01,20.74,1.47,20.71,20.62-.01,7.87.01,15.74,0,23.61-.03,11.34-3.14,14.57-14.26,14.57-82.9.02-165.8.01-248.71.01ZM323.62,349.61v.03c-48.2,0-96.41.1-144.61-.12-5.82-.03-7.69,1.44-7.68,7.5.18,84.63.17,169.26,0,253.89-.01,5.7,1.18,7.91,7.37,7.76,17.32-.42,34.67-.4,51.99,0,5.86.14,7.11-1.89,7.07-7.32-.21-30.27-.31-60.55,0-90.83.34-34.09,15.22-60.4,44.98-76.65,29.72-16.22,60.04-14.47,88.2,4.1,24.31,16.03,37.53,39.42,37.86,69.08.34,30.99.25,61.98.03,92.97-.05,6.27,1.39,8.9,8.28,8.7,17.08-.49,34.19-.45,51.28-.07,6.02.13,7.47-1.78,7.45-7.64-.19-84.39-.2-168.78,0-253.18.02-6.59-1.81-8.41-8.34-8.38-47.96.26-95.93.14-143.9.14ZM51.2,382.44c0,75.8.08,151.6-.14,227.39-.02,6.7,1.5,9,8.56,8.9,27.06-.41,54.13-.16,81.19-.17q9.41,0,9.4-9.2c0-53.15,0-106.31,0-159.46,0-98.68-.07-197.36.11-296.04.01-6.19-1.43-8.05-7.84-7.96-27.77.39-55.56.41-83.33,0-6.79-.1-8.12,2.09-8.1,8.43.21,76.04.13,152.07.15,228.11ZM323.78,618.52c18.99,0,37.99-.17,56.98.11,5.18.08,7.01-1.21,6.96-6.71-.26-31.46.17-62.93-.25-94.39-.44-33.34-27.68-61.16-60.4-62.46-35.18-1.39-64.88,23.52-67.22,58.06-2.26,33.29-.45,66.71-.8,100.07-.05,4.61,2.38,5.41,6.32,5.39,19.47-.12,38.94-.06,58.41-.07ZM323.4,328.22c31.34,0,62.68-.16,94.02.13,6.44.06,7.33-1.81,6.2-7.81-10-53.28-58.26-89.06-112.33-82.97-43.59,4.91-80.24,39.44-87.97,82.55-1.1,6.15-.07,8.34,6.78,8.26,31.1-.35,62.2-.16,93.3-.16ZM263.18,639.94v.03c-64.11,0-128.23,0-192.34,0-14.25,0-28.5-.05-42.74.05-2.13.01-4.79-.99-5.92,2.35-2.95,8.65.51,13.67,9.64,13.67,118.49.01,236.98.03,355.48.04,37.04,0,74.09,0,111.13-.11,2.32,0,5.39,1.45,6.85-1.96,3.36-7.84-.68-14.06-9.14-14.06-77.65,0-155.3,0-232.94,0ZM100.74,124.75c10.2,0,20.41-.09,30.61.05,3.3.04,5.8-.88,8.22-3.25,11.51-11.27,12.2-22.49,1.96-35.28-11.64-14.54-26.71-25.69-38.89-39.69-1.65-1.89-2.88-1.87-4.52.07-9.99,11.85-22.45,21.21-32.78,32.71-5.08,5.65-10.19,11.31-12.38,18.92-3.45,11.96,7.07,26.45,19.32,26.48,9.49.02,18.98,0,28.47,0Z"/>
</svg>