<?xml version="1.0" encoding="utf-8"?>
<!-- Svg Vector Icons : http://www.onlinewebfonts.com/icon -->
<!DOCTYPE svg PUBLIC "-//W3C//DTD SVG 1.1//EN" "http://www.w3.org/Graphics/SVG/1.1/DTD/svg11.dtd">
<svg version="1.1" xmlns="http://www.w3.org/2000/svg" xmlns:xlink="http://www.w3.org/1999/xlink" x="0px" y="0px" viewBox="0 0 256 256" enable-background="new 0 0 256 256" xml:space="preserve">
<metadata> Svg Vector Icons : http://www.onlinewebfonts.com/icon </metadata>
<g><g><g><path fill="#588B76" d="M71.4,51.4c-9.5,0.8-20.9,3.9-29.7,8.2c-5.3,2.6-12,6.9-14.9,9.6c-1.8,1.7-2,2-2,4.2v2.4l-3.6,0.1c-4.6,0.2-7.4,1.8-9.6,5.2l-1.4,2.3l-0.1,56.2L10,195.8l1,2.3c1.2,2.9,4,5.3,7.1,6.2c3.5,1.1,216.7,1.1,220.2,0c2.8-0.8,5.4-3,6.8-5.4l1-1.9v-56.8V83.3l-1.4-2.3c-2.1-3.4-5-5-9.6-5.2l-3.6-0.1v-2.4c0-2.1-0.1-2.4-1.9-4.2c-1.1-1-3.8-3-6.1-4.6c-14.5-9.6-34.5-14.8-51.5-13.3C157,52.6,144,57,132.4,64.6l-4.3,2.8l-4.2-2.8c-10.8-7.2-24.7-12-38.7-13.3C79.4,50.8,77.9,50.8,71.4,51.4z M84.2,58.7c13,1.2,25.4,5.4,35.7,12.3l4.5,3v55c0,52.1,0,54.9-0.8,54.6c-12.9-5.2-24.5-7.8-38.6-9c-18.2-1.4-37.1,0.8-49.6,6l-3.3,1.4v-53.9V74l4.2-2.8c9.1-6.1,20.8-10.5,31.5-11.9C75.3,58.2,77.7,58.1,84.2,58.7z M188.8,59.2c10.9,1.6,22.8,6.3,32,12.5l3.3,2.3v53.9v53.9l-3.3-1.4c-11.9-4.9-31.6-7.3-48.7-6c-14.9,1.2-26.3,3.7-39.4,9c-0.8,0.3-0.8-2.5-0.8-54.6V74l4.2-2.8c10.8-7.2,22.3-11.2,37-12.6C175.8,58.2,185,58.6,188.8,59.2z M24.8,136.4v53.2l1.4,1.2c1.2,1,1.8,1.2,3.4,0.9c1-0.1,5.5-0.6,10-0.9c31.3-2.6,57.4-2,77.9,1.7c8.4,1.5,11.7,1.6,19.9,0.2c23.6-4,47.2-4.5,79.4-1.9c4.4,0.4,9,0.8,10.1,0.9c1.7,0.3,2.1,0.1,3.3-1.1l1.4-1.3v-53.1V83.1h2.7c2.4,0,2.9,0.1,3.7,1.2c1,1.2,1,1.3,1,55.9v54.7l-1.3,1.3l-1.3,1.3H128.1H20.1l-1.3-1.3l-1.3-1.3v-54.7c0-54.6,0-54.6,1-55.9c0.8-1.1,1.3-1.2,3.7-1.2h2.7L24.8,136.4L24.8,136.4z"/></g></g></g>
</svg>