<svg width="20" height="15" viewBox="0 0 20 15" fill="none" xmlns="http://www.w3.org/2000/svg">
<path d="M18.3438 0.225587H13.4894C12.678 0.225036 11.8905 0.50088 11.2568 1.00768C10.6231 1.51448 10.181 2.22201 10.0031 3.01371C9.8249 2.22222 9.3826 1.51495 8.749 1.00823C8.11539 0.501503 7.3282 0.225491 6.51689 0.225587H1.66626C1.22423 0.225752 0.800353 0.401422 0.487789 0.713986C0.175225 1.02655 -0.000444703 1.45043 -0.000610352 1.89246V10.4275C-0.000444703 10.8695 0.175225 11.2934 0.487789 11.6059C0.800353 11.9185 1.22423 12.0942 1.66626 12.0943H4.78064C8.32939 12.0943 9.38814 12.9412 9.89501 14.6987C9.91939 14.7962 10.0756 14.7962 10.1031 14.6987C10.6138 12.9418 11.6725 12.0943 15.2175 12.0943H18.3319C18.7739 12.0942 19.1978 11.9185 19.5104 11.6059C19.8229 11.2934 19.9986 10.8695 19.9988 10.4275V1.89621C19.9988 1.45567 19.8247 1.03297 19.5145 0.720178C19.2043 0.407385 18.783 0.229839 18.3425 0.226212L18.3438 0.225587ZM8.40252 9.44059C8.40268 9.45656 8.39966 9.4724 8.39363 9.48718C8.38759 9.50197 8.37867 9.5154 8.36737 9.5267C8.35608 9.53799 8.34265 9.54691 8.32786 9.55295C8.31308 9.55898 8.29723 9.562 8.28127 9.56184H2.71501C2.69907 9.56192 2.68326 9.55884 2.66852 9.55278C2.65377 9.54671 2.64037 9.53778 2.62909 9.52651C2.61782 9.51523 2.60889 9.50183 2.60283 9.48709C2.59676 9.47234 2.59368 9.45653 2.59376 9.44059V8.64559C2.59376 8.57996 2.64564 8.52434 2.71501 8.52434H8.28439C8.35001 8.52434 8.40564 8.57621 8.40564 8.64559V9.44059H8.40252ZM8.40252 7.32621C8.4026 7.34216 8.39952 7.35796 8.39345 7.37271C8.38739 7.38746 8.37846 7.40086 8.36719 7.41213C8.35591 7.42341 8.34251 7.43234 8.32776 7.4384C8.31301 7.44446 8.29721 7.44754 8.28127 7.44746H2.71501C2.69907 7.44754 2.68326 7.44446 2.66852 7.4384C2.65377 7.43234 2.64037 7.42341 2.62909 7.41213C2.61782 7.40086 2.60889 7.38746 2.60283 7.37271C2.59676 7.35796 2.59368 7.34216 2.59376 7.32621V6.53121C2.59376 6.46496 2.64564 6.40996 2.71501 6.40996H8.28439C8.35001 6.40996 8.40564 6.46184 8.40564 6.53121V7.32621H8.40252ZM8.40252 5.21184C8.4026 5.22778 8.39952 5.24359 8.39345 5.25833C8.38739 5.27308 8.37846 5.28648 8.36719 5.29776C8.35591 5.30903 8.34251 5.31796 8.32776 5.32403C8.31301 5.33009 8.29721 5.33317 8.28127 5.33309H2.71501C2.69907 5.33317 2.68326 5.33009 2.66852 5.32403C2.65377 5.31796 2.64037 5.30903 2.62909 5.29776C2.61782 5.28648 2.60889 5.27308 2.60283 5.25833C2.59676 5.24359 2.59368 5.22778 2.59376 5.21184V4.41684C2.59376 4.35121 2.64564 4.29559 2.71501 4.29559H8.28439C8.35001 4.29559 8.40564 4.34746 8.40564 4.41684V5.21184H8.40252ZM17.4063 9.43746C17.4063 9.45341 17.4033 9.46921 17.3972 9.48396C17.3911 9.49871 17.3822 9.51211 17.3709 9.52338C17.3597 9.53466 17.3463 9.54359 17.3315 9.54965C17.3168 9.55571 17.301 9.55879 17.285 9.55871H11.7188C11.7028 9.55879 11.687 9.55571 11.6723 9.54965C11.6575 9.54359 11.6441 9.53466 11.6328 9.52338C11.6216 9.51211 11.6126 9.49871 11.6066 9.48396C11.6005 9.46921 11.5974 9.45341 11.5975 9.43746V8.64246C11.5975 8.57684 11.6494 8.52121 11.7188 8.52121H17.2881C17.3544 8.52121 17.4094 8.57309 17.4094 8.64246V9.43746H17.4063ZM17.4063 7.32309C17.4064 7.33906 17.4034 7.3549 17.3974 7.36968C17.3913 7.38447 17.3824 7.3979 17.3711 7.4092C17.3598 7.42049 17.3464 7.42941 17.3316 7.43545C17.3168 7.44148 17.301 7.4445 17.285 7.44434H11.7188C11.7028 7.44442 11.687 7.44134 11.6723 7.43528C11.6575 7.42921 11.6441 7.42028 11.6328 7.40901C11.6216 7.39773 11.6126 7.38433 11.6066 7.36958C11.6005 7.35484 11.5974 7.33903 11.5975 7.32309V6.52809C11.5975 6.46246 11.6494 6.40684 11.7188 6.40684H17.2881C17.3544 6.40684 17.4094 6.45871 17.4094 6.52809V7.32309H17.4063ZM17.4063 5.20809C17.4063 5.22403 17.4033 5.23984 17.3972 5.25458C17.3911 5.26933 17.3822 5.28273 17.3709 5.29401C17.3597 5.30528 17.3463 5.31421 17.3315 5.32028C17.3168 5.32634 17.301 5.32942 17.285 5.32934H11.7188C11.7028 5.32942 11.687 5.32634 11.6723 5.32028C11.6575 5.31421 11.6441 5.30528 11.6328 5.29401C11.6216 5.28273 11.6126 5.26933 11.6066 5.25458C11.6005 5.23984 11.5974 5.22403 11.5975 5.20809V4.41621C11.5975 4.35059 11.6494 4.29496 11.7188 4.29496H17.2881C17.3544 4.29496 17.4094 4.34684 17.4094 4.41621V5.20809H17.4063Z" fill="white"/>
</svg>
